<svg id="Layer_1" data-name="Layer 1" xmlns="http://www.w3.org/2000/svg" xmlns:xlink="http://www.w3.org/1999/xlink" viewBox="0 0 444.6 295.12"><defs><style>.cls-1{fill:none;}.cls-2{clip-path:url(#clip-path);}.cls-3{clip-path:url(#clip-path-2);}.cls-4{fill:#fff;}.cls-5{fill:#002a5c;}.cls-6{fill:#deb407;}</style><clipPath id="clip-path" transform="translate(-80.07 -233.07)"><rect class="cls-1" width="612" height="792"/></clipPath><clipPath id="clip-path-2" transform="translate(-80.07 -233.07)"><rect class="cls-1" y="-0.03" width="612" height="792"/></clipPath></defs><title>logo</title><g class="cls-2"><g class="cls-3"></g></g><path class="cls-5" d="M195,384.85a43.58,43.58,0,0,1-9.58,13.86,42.19,42.19,0,0,1-14.1,9,47.62,47.62,0,0,1-34,.06,42.46,42.46,0,0,1-14-8.81,41.63,41.63,0,0,1-9.46-13.62A46.36,46.36,0,0,1,114,349.8a40.67,40.67,0,0,1,9.81-13.62,43.05,43.05,0,0,1,14.45-8.58,50.83,50.83,0,0,1,17.45-3,43.6,43.6,0,0,1,17.91,3.52,40.75,40.75,0,0,1,13.46,9.45,41.52,41.52,0,0,1,8.46,13.69,45.23,45.23,0,0,1,2.93,16.2A42.55,42.55,0,0,1,195,384.85m-12.86-31.7a45.47,45.47,0,0,0-5.52-13.2,31.49,31.49,0,0,0-9.23-9.63,22.92,22.92,0,0,0-13-3.7,23.4,23.4,0,0,0-13.22,3.7,30.19,30.19,0,0,0-9.17,9.57,44.35,44.35,0,0,0-5.29,13.32,67.86,67.86,0,0,0-1.7,15.09,61.81,61.81,0,0,0,1.88,15.37,42.48,42.48,0,0,0,5.58,13,29,29,0,0,0,9.29,9,24.41,24.41,0,0,0,13,3.41,22.13,22.13,0,0,0,12.87-3.76,31.61,31.61,0,0,0,9.1-9.68,46.21,46.21,0,0,0,5.47-13.33,61.86,61.86,0,0,0,1.82-14.79A59.53,59.53,0,0,0,182.09,353.15Z" transform="translate(-80.07 -233.07)"/><path class="cls-5" d="M238.71,364.18a4.63,4.63,0,0,1-3.53,1.71,5.84,5.84,0,0,1-3-.66,9.46,9.46,0,0,1-1.94-1.48,12.5,12.5,0,0,0-1.76-1.49,4.47,4.47,0,0,0-2.58-.65,4.57,4.57,0,0,0-2.76,1,12.82,12.82,0,0,0-2.53,2.52,20.41,20.41,0,0,0-2.11,3.46c-.62,1.29-1.17,2.53-1.64,3.7v33.8a2.83,2.83,0,0,0,1.53,1.65,9.17,9.17,0,0,0,2.64.82,22.86,22.86,0,0,0,3.05.29,17.12,17.12,0,0,1,2.76.3v1.17H200.54v-1.17a15.32,15.32,0,0,0,4.64-1.06,2.79,2.79,0,0,0,1.93-2.7V365.72a4.51,4.51,0,0,0-.17-1.41,2.69,2.69,0,0,0-1-1.05c-.7-.4-1.53-.88-2.46-1.47a19,19,0,0,0-2.82-1.47v-.7l15.39-6h.68L216.49,370h.25q.6-1.41,1.89-4.11a35.43,35.43,0,0,1,3.29-5.45,20.47,20.47,0,0,1,4.81-4.75,10.9,10.9,0,0,1,6.46-2,7.38,7.38,0,0,1,5,1.77,5.61,5.61,0,0,1,2,4.47,6.23,6.23,0,0,1-1.52,4.29" transform="translate(-80.07 -233.07)"/><path class="cls-5" d="M290.19,403.19a14.64,14.64,0,0,1-2.47,3.82,10.22,10.22,0,0,1-3.58,2.58,11.28,11.28,0,0,1-4.52.88,11.44,11.44,0,0,1-7.1-2.35q-3.12-2.34-3.12-8.22l-.21-.11a29.51,29.51,0,0,1-2.53,3.39,22.68,22.68,0,0,1-3.76,3.51,19.49,19.49,0,0,1-4.81,2.64,16.5,16.5,0,0,1-5.82,1,14.59,14.59,0,0,1-3.82-.53,9,9,0,0,1-3.52-1.87,10.23,10.23,0,0,1-2.59-3.47,12,12,0,0,1-1-5.16A9.61,9.61,0,0,1,244,393a29.45,29.45,0,0,1,6.52-5.51c2.59-1.65,4.88-3.05,6.88-4.22s3.73-2.18,5.22-3,2.8-1.52,3.94-2.11,2.09-1.11,2.87-1.58V364.45a3.72,3.72,0,0,0-.41-1.11,6.18,6.18,0,0,0-1.4-1.82,9.54,9.54,0,0,0-2.77-1.7,11.55,11.55,0,0,0-4.57-.76,11,11,0,0,0-3.7.64,12.91,12.91,0,0,0-3.23,1.65,11.17,11.17,0,0,0-2.23,2,2.9,2.9,0,0,0-.82,1.71v5.28a3.67,3.67,0,0,1-1.71,2.93,6,6,0,0,1-3.7,1.29,4.39,4.39,0,0,1-3.22-1.35,4.26,4.26,0,0,1-1.35-3.11,4.93,4.93,0,0,1,.7-2.58,9.07,9.07,0,0,1,1.76-2.11,13.72,13.72,0,0,1,2.29-1.65c.82-.46,1.55-.9,2.17-1.29,2-1.17,4.11-2.31,6.23-3.4s4.14-2,6.06-2.82a53,53,0,0,1,5.29-1.88,14.7,14.7,0,0,1,3.94-.71,11.12,11.12,0,0,1,5.74,1.59,9.53,9.53,0,0,1,3.87,3.93,7.24,7.24,0,0,1,.56,2.87c.07,1.37.11,2.72.11,4,0,2.81,0,5.36,0,7.63s0,4.46,0,6.57,0,4.28-.08,6.51-.08,4.67-.08,7.33q0,5.28,1.83,7a5.9,5.9,0,0,0,4.17,1.7,6.07,6.07,0,0,0,4-1.1,5.55,5.55,0,0,0,1.76-2.86h.71a12.56,12.56,0,0,1-1.06,4.34m-20.78-24.77a45.69,45.69,0,0,1-5.27,3.23q-3.18,1.71-6.16,3.7a27.66,27.66,0,0,0-5.16,4.4,7.9,7.9,0,0,0-2.17,5.46,8.28,8.28,0,0,0,2.11,5.52,6.91,6.91,0,0,0,5.51,2.46,18.81,18.81,0,0,0,5.4-.7,10.37,10.37,0,0,0,4.34-2.7,4.26,4.26,0,0,0,1.4-3.29Z" transform="translate(-80.07 -233.07)"/><path class="cls-5" d="M376.15,392.92a31,31,0,0,1-6,9.33,27.2,27.2,0,0,1-8.74,6.21,25.35,25.35,0,0,1-10.49,2.24,29.79,29.79,0,0,1-9.5-1.65,26.67,26.67,0,0,1-9.09-5.22,27.19,27.19,0,0,1-6.8-9.16,30.26,30.26,0,0,1-2.64-13.08,27.48,27.48,0,0,1,2-10.45A27.8,27.8,0,0,1,339.62,356a28.11,28.11,0,0,1,21.05-.59,27.37,27.37,0,0,1,8.73,5.23,27,27,0,0,1,6.45,8.68,28,28,0,0,1,2.53,12.27,29.27,29.27,0,0,1-2.23,11.33m-9.54-20a31.4,31.4,0,0,0-2.88-8.46,18.89,18.89,0,0,0-5.28-6.4,12.91,12.91,0,0,0-8.1-2.52,11.1,11.1,0,0,0-6.93,2.35,20.4,20.4,0,0,0-5.23,6.16,32.07,32.07,0,0,0-3.28,8.57,42.47,42.47,0,0,0-1.12,9.68,53.77,53.77,0,0,0,.94,10.22,27.83,27.83,0,0,0,3,8.51,17,17,0,0,0,5.41,5.87,13.92,13.92,0,0,0,7.87,2.17,11.16,11.16,0,0,0,7.68-2.76,20.77,20.77,0,0,0,5.05-6.93,37,37,0,0,0,2.82-9,49.61,49.61,0,0,0,.88-8.93A45.16,45.16,0,0,0,366.61,372.88Z" transform="translate(-80.07 -233.07)"/><path class="cls-5" d="M417.52,364.18a4.61,4.61,0,0,1-3.52,1.71,5.88,5.88,0,0,1-3-.66,9.12,9.12,0,0,1-1.93-1.48,13.75,13.75,0,0,0-1.76-1.49,4.78,4.78,0,0,0-5.34.35,12.31,12.31,0,0,0-2.53,2.52,19.79,19.79,0,0,0-2.11,3.46c-.63,1.29-1.18,2.53-1.65,3.7v33.8a2.86,2.86,0,0,0,1.53,1.65,9.17,9.17,0,0,0,2.64.82,23,23,0,0,0,3,.29,17.12,17.12,0,0,1,2.76.3v1.17H379.35v-1.17a15.25,15.25,0,0,0,4.64-1.06,2.8,2.8,0,0,0,1.94-2.7V365.72a4.18,4.18,0,0,0-.18-1.41,2.69,2.69,0,0,0-1-1.05c-.7-.4-1.53-.88-2.46-1.47a19,19,0,0,0-2.82-1.47v-.7l15.39-6h.68L395.31,370h.25c.4-.94,1-2.31,1.89-4.11a33.91,33.91,0,0,1,3.29-5.45,20.24,20.24,0,0,1,4.8-4.75,10.9,10.9,0,0,1,6.46-2,7.38,7.38,0,0,1,5,1.77,5.61,5.61,0,0,1,2.05,4.47,6.19,6.19,0,0,1-1.52,4.29" transform="translate(-80.07 -233.07)"/><path class="cls-5" d="M469.44,356.3a9.33,9.33,0,0,0-2.58.6,5.71,5.71,0,0,0-2.17,1.46,7.24,7.24,0,0,0-1.53,2.87c-.39,1.26-1,3.25-1.87,6s-1.88,6-3.06,9.68-2.46,7.81-3.87,12.27-2.84,9-4.29,13.73-2.89,9.35-4.34,14-2.84,9-4.17,13.15a12.74,12.74,0,0,1-4,6.45,8.56,8.56,0,0,1-5.28,2A7.14,7.14,0,0,1,428,437a4.48,4.48,0,0,1-2-3.8,5.47,5.47,0,0,1,1.41-3.87,4.85,4.85,0,0,1,3.75-1.52,5.71,5.71,0,0,1,3.94,1.4q1.57,1.41,3.23,2.93h.23c.86-2.11,1.62-4.21,2.29-6.28s1.25-3.95,1.76-5.63.92-3.12,1.23-4.29.51-2,.59-2.35c-.16-.31-.59-1.43-1.29-3.34s-1.61-4.38-2.7-7.4-2.35-6.4-3.76-10.15-2.84-7.62-4.28-11.57l-4.29-11.68-3.87-10.56a8.11,8.11,0,0,0-2.52-1.88,16.63,16.63,0,0,0-5.46-.94v-1.29H441.8v1.29a25.47,25.47,0,0,0-4.28.94,2.61,2.61,0,0,0-1.82,2.82,14.15,14.15,0,0,0,.7,2.87c.47,1.53,1.1,3.42,1.88,5.69s1.66,4.76,2.64,7.46l2.93,8.15q1.47,4.13,2.88,7.93l2.46,6.63c.24-.63.67-2,1.3-4s1.37-4.44,2.23-7.22,1.76-5.69,2.69-8.74,1.8-5.93,2.59-8.63,1.42-5,1.93-6.93a20.67,20.67,0,0,0,.77-3.58,2.44,2.44,0,0,0-.59-1.7,3.87,3.87,0,0,0-1.58-1,9.67,9.67,0,0,0-2.18-.47c-.78-.07-1.52-.15-2.23-.23v-1.29H472.2v1.29l-2.76.23" transform="translate(-80.07 -233.07)"/><path class="cls-6" d="M347.33,422.53a22.55,22.55,0,0,1,4.18-.35,7,7,0,0,1,4.74,1.4,4.59,4.59,0,0,1,1.5,3.53,4.88,4.88,0,0,1-1.33,3.61,7,7,0,0,1-5.15,1.85,7.27,7.27,0,0,1-1.76-.15v6.76h-2.18V422.53m2.18,8.11a7.22,7.22,0,0,0,1.81.18c2.65,0,4.22-1.3,4.22-3.58s-1.57-3.33-4-3.33a10.51,10.51,0,0,0-2.06.18Z" transform="translate(-80.07 -233.07)"/><path class="cls-6" d="M367.16,422.56a22.25,22.25,0,0,1,4.18-.38c2.33,0,3.85.45,4.9,1.4a4.22,4.22,0,0,1,1.33,3.21,4.46,4.46,0,0,1-3.18,4.28v.07c1.28.46,2.06,1.66,2.48,3.41a29.73,29.73,0,0,0,1.28,4.63h-2.26a21.13,21.13,0,0,1-1.1-4c-.5-2.33-1.42-3.2-3.4-3.28h-2.05v7.31h-2.18V422.56m2.18,7.66h2.22c2.33,0,3.81-1.28,3.81-3.21,0-2.17-1.58-3.12-3.88-3.12a8.56,8.56,0,0,0-2.15.2Z" transform="translate(-80.07 -233.07)"/><polyline class="cls-6" points="315.77 198.2 309.24 198.2 309.24 204.28 316.55 204.28 316.55 206.1 307.04 206.1 307.04 189.24 316.17 189.24 316.17 191.06 309.24 191.06 309.24 196.4 315.77 196.4 315.77 198.2"/><path class="cls-6" d="M406,422.53a22.59,22.59,0,0,1,4.19-.35,6.94,6.94,0,0,1,4.73,1.4,4.59,4.59,0,0,1,1.5,3.53,4.88,4.88,0,0,1-1.33,3.61,7,7,0,0,1-5.15,1.85,7.36,7.36,0,0,1-1.76-.15v6.76H406V422.53m2.18,8.11a7.27,7.27,0,0,0,1.81.18c2.65,0,4.23-1.3,4.23-3.58s-1.58-3.33-4-3.33a10.59,10.59,0,0,0-2.06.18Z" transform="translate(-80.07 -233.07)"/><path class="cls-6" d="M309.06,421.88a96.31,96.31,0,1,0,7.79-98.14h-20.1a113.32,113.32,0,1,1-6.25,98.19l18.56-.05" transform="translate(-80.07 -233.07)"/><path class="cls-6" d="M307.52,335.71a4,4,0,0,1,.37,1.42,3.83,3.83,0,0,1,2.85,1.43A3.16,3.16,0,0,1,311,342a3.63,3.63,0,0,1-3,1.71l0,13.25,13.21,0a3.23,3.23,0,0,1,1.82-2.83,3.9,3.9,0,0,1,3.52.09,3.27,3.27,0,0,1,1.68,2.78,3.57,3.57,0,0,1,3.25,2.06,3.16,3.16,0,0,1-.55,3.3,3.71,3.71,0,0,1-2.67,1.19,3.53,3.53,0,0,1-2.07,3,3.8,3.8,0,0,1-3.68-.44,3,3,0,0,1-1.28-2.47L308,363.62h-.12l0,38a3.86,3.86,0,0,1,2.85,1.42,3.19,3.19,0,0,1,.22,3.47,3.64,3.64,0,0,1-3,1.7c-.11.16,0,.41-.09.6a3.46,3.46,0,0,1-2.31,2.49,3.71,3.71,0,0,1-3.77-.94,3.17,3.17,0,0,1-.88-2.13,3.85,3.85,0,0,1-2.86-1.41,3.2,3.2,0,0,1-.19-3.53,3.71,3.71,0,0,1,3-1.64l0-38H287.65a3.31,3.31,0,0,1-1.58,2.69,3.89,3.89,0,0,1-3.31.26,3.28,3.28,0,0,1-2.13-3,3.66,3.66,0,0,1-3.33-2.24,3.12,3.12,0,0,1,.86-3.38,3.57,3.57,0,0,1,2.43-.94,3.47,3.47,0,0,1,1.71-2.8,3.83,3.83,0,0,1,3.83.07,3.14,3.14,0,0,1,1.49,2.64l13.21,0,0-13.26a3.78,3.78,0,0,1-2.86-1.41,3.16,3.16,0,0,1-.21-3.46,3.59,3.59,0,0,1,3-1.71c.11-.16,0-.41.09-.59a3.49,3.49,0,0,1,2.31-2.51,3.65,3.65,0,0,1,4.29,1.65" transform="translate(-80.07 -233.07)"/><path class="cls-6" d="M303,333.17a4.37,4.37,0,0,0-2.89,3.05l0,.22a4.32,4.32,0,0,0-3,2,3.6,3.6,0,0,0-.56,2,4.23,4.23,0,0,0,.83,2.52,4.52,4.52,0,0,0,2.67,1.56c0,1.18,0,10.09,0,11.61l-11.58,0a4,4,0,0,0-1.67-2.49,4.75,4.75,0,0,0-4.83-.1,4.27,4.27,0,0,0-1.92,2.8,4.42,4.42,0,0,0-2.36,1.05,4.16,4.16,0,0,0-1.35,3,4,4,0,0,0,.24,1.36,4.46,4.46,0,0,0,3.4,2.72,4.21,4.21,0,0,0,2.61,3.06,4.76,4.76,0,0,0,4.11-.33,4.15,4.15,0,0,0,1.78-2.56h11.6c0,1.76,0,35.1,0,36.39a4.4,4.4,0,0,0-2.88,1.84,3.76,3.76,0,0,0-.58,2.07,4.24,4.24,0,0,0,.82,2.52,4.69,4.69,0,0,0,2.83,1.59,4,4,0,0,0,1,2,4.64,4.64,0,0,0,4.74,1.18,4.4,4.4,0,0,0,2.88-3.05.65.65,0,0,1,0-.11h0s0,0,0-.08l0,.08a4.42,4.42,0,0,0,3-2,3.61,3.61,0,0,0,.54-2,4.27,4.27,0,0,0-.82-2.53,4.67,4.67,0,0,0-2.66-1.57c0-1.32,0-34.61,0-36.36l11.55.05a4,4,0,0,0,1.43,2.28,4.71,4.71,0,0,0,4.62.55,4.49,4.49,0,0,0,2.49-3.08,4.67,4.67,0,0,0,2.55-1.3,4.26,4.26,0,0,0,1.06-2.81,3.7,3.7,0,0,0-.32-1.54,4.44,4.44,0,0,0-3.4-2.51,4.22,4.22,0,0,0-1.91-2.75,4.84,4.84,0,0,0-4.43-.12,4.21,4.21,0,0,0-2.18,2.73l-11.48,0c0-1.52,0-10.24,0-11.53a4.38,4.38,0,0,0,2.92-2,3.64,3.64,0,0,0,.54-2,4.26,4.26,0,0,0-.82-2.52,4.69,4.69,0,0,0-2.84-1.61,4.76,4.76,0,0,0-.28-1.08l0-.05a4.59,4.59,0,0,0-5.39-2.08m-3,3.26c0-.07.06-.14.07-.21v-.05Zm8.73,72.6,0,.12v.05l.05-.17Z" transform="translate(-80.07 -233.07)"/></svg>